<?xml version="1.0" encoding="UTF-8"?>
<!DOCTYPE svg PUBLIC "-//W3C//DTD SVG 1.1//EN" "http://www.w3.org/Graphics/SVG/1.1/DTD/svg11.dtd">
<!-- Creator: CorelDRAW 2020 (64-Bit) -->
<svg xmlns="http://www.w3.org/2000/svg" xml:space="preserve" width="40mm" height="40mm" version="1.1" style="shape-rendering:geometricPrecision; text-rendering:geometricPrecision; image-rendering:optimizeQuality; fill-rule:evenodd; clip-rule:evenodd"
viewBox="0 0 4000 4000"
 xmlns:xlink="http://www.w3.org/1999/xlink"
 xmlns:xodm="http://www.corel.com/coreldraw/odm/2003">
 <defs>
  <style type="text/css">
   <![CDATA[
    .fil0 {fill:#FEFEFE}
    .fil1 {fill:#FEFEFE;fill-rule:nonzero}
    .fil2 {fill:#373435;fill-rule:nonzero}
   ]]>
  </style>
 </defs>
 <g id="Capa_x0020_1">
  <metadata id="CorelCorpID_0Corel-Layer"/>
  <path class="fil0" d="M1993.4 44.23c1083.79,0 1962.37,878.58 1962.37,1962.38 0,1083.79 -878.58,1962.37 -1962.37,1962.37 -1083.8,0 -1962.38,-878.58 -1962.38,-1962.37 0,-1083.8 878.58,-1962.38 1962.38,-1962.38zm-61.82 39.7c1031.55,0 1867.79,845.54 1867.79,1888.55 0,1043 -836.24,1888.54 -1867.79,1888.54 -1031.55,0 -1867.79,-845.54 -1867.79,-1888.54 0,-1043.01 836.24,-1888.55 1867.79,-1888.55z"/>
  <rect class="fil0" x="704.11" y="3166.62" width="2492.18" height="127" rx="43.14" ry="24.83"/>
  <path class="fil0" d="M1122.65 2837.37c0.71,0.7 2.12,-3.11 2.12,-2.12l0 0.01c-0.14,0.13 -2.82,1.4 -2.12,2.11z"/>
  <path class="fil0" d="M993.53 2419.73c0.98,0.98 2.93,-4.32 2.94,-2.94l0 0c-0.19,0.19 -3.92,1.96 -2.94,2.94z"/>
  <path class="fil1" d="M839.43 3134.68c-13.9,0 -28.2,-1.49 -42.91,-4.58 -14.71,-3.08 -28.36,-6.92 -40.95,-11.31 -12.58,-4.39 -22.56,-8.6 -29.91,-12.71l7.35 -76.28c11.45,6.36 23.38,12.25 35.8,17.67 12.42,5.42 25.17,9.82 38.25,13.18 13.08,3.37 26.32,5.05 39.72,5.05 16.68,0 30.08,-3.74 40.21,-11.22 10.14,-7.48 15.2,-18.88 15.2,-34.21 0,-11.78 -2.86,-21.31 -8.58,-28.51 -5.73,-7.1 -14.47,-13.55 -26.24,-19.35 -11.77,-5.61 -26.81,-12.15 -45.11,-19.44 -18.3,-7.29 -34.73,-15.52 -49.28,-24.86 -14.55,-9.26 -26.07,-20.94 -34.57,-35.15 -8.5,-14.21 -12.75,-32.34 -12.75,-54.4 0,-21.69 4.66,-40.94 13.97,-57.96 9.32,-16.82 23.29,-30.09 41.85,-39.81 18.55,-9.63 41.6,-14.4 69.22,-14.4 20.92,0 40.87,2.62 59.83,7.95 18.96,5.32 35.14,11.12 48.54,17.29l-6.37 73.47c-19.29,-9.91 -37.35,-17.39 -54.27,-22.62 -16.92,-5.05 -34.16,-7.67 -51.65,-7.67 -18.31,0 -32.45,3.46 -42.41,10.38 -9.98,6.92 -14.96,17.29 -14.96,31.12 0,11.03 2.78,19.91 8.33,26.64 5.56,6.73 13.49,12.44 23.78,17.2 10.3,4.77 22.65,9.82 37.03,15.05 24.84,8.98 45.76,18.79 62.68,29.54 16.92,10.84 29.67,23.84 38.25,38.98 8.5,15.24 12.83,34.12 12.83,56.55 0,11.22 -1.55,23.46 -4.66,36.55 -3.1,13.18 -9.23,25.7 -18.39,37.48 -9.15,11.78 -22.47,21.5 -40.04,28.98 -17.58,7.57 -40.87,11.4 -69.79,11.4z"/>
  <path id="1" class="fil1" d="M1162.58 3134.68c-32.2,0 -58.85,-7.29 -79.77,-21.87 -21.08,-14.58 -36.7,-35.05 -47,-61.41 -10.29,-26.36 -15.44,-57.3 -15.44,-92.82l0 -224.34 62.77 0 0 205.83c0,18.69 1.06,35.8 3.19,51.13 2.12,15.42 6.05,28.7 11.69,39.82 5.64,11.22 13.64,19.72 24.1,25.7 10.47,5.99 23.95,8.98 40.46,8.98 16.51,0 30,-2.99 40.45,-8.98 10.47,-5.98 18.56,-14.48 24.2,-25.7 5.64,-11.12 9.47,-24.4 11.6,-39.82 2.12,-15.33 3.19,-32.44 3.19,-51.13l0 -205.83 62.77 0 0 224.34c0,35.52 -5.15,66.46 -15.45,92.82 -10.3,26.36 -25.99,46.83 -46.91,61.41 -21.01,14.58 -47.65,21.87 -79.85,21.87z"/>
  <path id="2" class="fil1" d="M1376.37 3126.83l0 -392.59 125.54 0c23.7,0 44.46,4.3 62.19,12.9 17.66,8.6 31.47,21.69 41.28,39.26 9.8,17.57 14.71,39.82 14.71,66.74 0,28.79 -5.4,51.6 -16.02,68.52 -10.7,17.01 -24.84,30.37 -42.34,40.28l77.48 164.89 -70.12 0 -66.2 -145.82c-0.49,0 -0.9,0 -1.22,0 -0.33,0 -0.74,0 -1.23,0l-61.3 0 0 145.82 -62.77 0zm62.77 -205.83l46.1 0c25.83,0 43.8,-6.07 53.94,-18.13 10.13,-12.06 15.2,-27.3 15.2,-45.8 0,-19.63 -4.98,-34.96 -14.96,-46.18 -9.97,-11.03 -27.21,-16.64 -51.73,-16.64l-48.55 0 0 126.75z"/>
  <path id="3" class="fil1" d="M1835.86 3134.68c-36.3,0 -67.35,-8.5 -93.17,-25.42 -25.83,-16.83 -45.61,-40.66 -59.34,-71.32 -13.73,-30.66 -20.59,-66.65 -20.59,-107.96 0,-40.95 7.68,-76.75 22.96,-107.31 15.2,-30.47 36.37,-54.22 63.34,-71.04 26.97,-16.83 58.02,-25.24 93.17,-25.24 18.14,0 35.55,2.15 52.14,6.45 16.51,4.3 30.73,9.81 42.5,16.54l-6.86 68.43c-12.26,-6.55 -25.83,-11.87 -40.55,-16.17 -14.78,-4.12 -30.55,-6.27 -47.23,-6.27 -25.5,0 -46.43,5.89 -62.77,17.48 -16.35,11.78 -28.44,27.67 -36.28,47.67 -7.85,20.1 -11.77,42.91 -11.77,68.33 0,26.74 4,50.39 11.92,70.95 7.94,20.56 19.78,36.73 35.64,48.33 15.86,11.68 35.63,17.57 59.34,17.57 7.19,0 14.79,-0.56 22.72,-1.68 7.92,-1.13 16.02,-2.62 24.35,-4.49l0 -70.11 -47.07 0 0 -59.44 109.84 0 0 174.98c-11.93,8.04 -27.79,15.05 -47.41,20.84 -19.69,5.89 -41.34,8.88 -64.88,8.88z"/>
  <polygon id="4" class="fil1" points="2213.44,3126.83 2261.01,2734.24 2312.5,2734.24 2396.35,2913.15 2479.71,2734.24 2531.2,2734.24 2578.76,3126.83 2513.55,3126.83 2480.69,2831.83 2497.85,2835.75 2396.35,3044.39 2294.36,2836.31 2311.51,2832.39 2278.66,3126.83 "/>
  <polygon id="5" class="fil1" points="2635.65,3126.83 2635.65,2734.24 2855.34,2734.24 2855.34,2803.79 2699.89,2803.79 2699.89,2887.35 2820.52,2887.35 2820.52,2956.9 2699.89,2956.9 2699.89,3057.29 2860.24,3057.29 2860.24,3126.83 "/>
  <path id="6" class="fil1" d="M2914.18 3126.83l0 -392.59 128.48 0c32.69,0 61.79,7.76 87.28,23.37 25.51,15.7 45.53,38.14 60.08,67.3 14.55,29.26 21.81,64.5 21.81,105.63 0,41.12 -7.26,76.27 -21.81,105.53 -14.55,29.25 -34.57,51.78 -60.08,67.3 -25.49,15.61 -54.59,23.46 -87.28,23.46l-128.48 0zm62.77 -63.94l65.71 0c22.23,0 40.78,-5.32 55.66,-15.98 14.87,-10.66 26.07,-25.89 33.59,-45.71 7.52,-19.81 11.28,-43.37 11.28,-70.66 0,-27.3 -3.76,-50.85 -11.28,-70.67 -7.52,-19.82 -18.72,-35.05 -33.59,-45.71 -14.88,-10.65 -33.43,-15.98 -55.66,-15.98l-65.71 0 0 264.71z"/>
  <path class="fil0" d="M2027.14 2825.71l-22.65 0 0 18.73 22.65 0 0 18.73 -22.65 0 0 18.74 22.65 0 0 18.73 -22.65 0 0 18.73 22.65 0 0 18.74 -22.65 0 0 18.73 22.65 0 0 18.74 -22.65 0 0 18.73 22.65 0 0 92.5c0,14.23 6.22,28.29 11.33,33.95 5,-5.55 11.32,-21.2 11.32,-35.13l0 -91.32 22.65 0 0 -18.73 -22.65 0 0 -18.74 22.65 0 0 -18.73 -22.65 0 0 -18.74 22.65 0 0 -18.73 -22.65 0 0 -18.73 22.65 0 0 -18.74 -22.65 0 0 -18.73 22.65 0 0 -18.73 -22.65 0 0 -28.1 -22.65 0 0 28.1z"/>
  <path class="fil0" d="M2020.38 2750.08l0 40.42 33.97 0 0 -40.42c0,-6.16 7.96,-8.16 16.68,-11.54 6.32,-2.45 6.06,-1.84 6,-4.97 -0.02,-1.35 -0.03,-2.7 -0.03,-4.06 -24.53,2.97 -54.64,2.98 -79.27,0 0,7.56 -1.66,6.07 5.97,9.03 1.77,0.68 2.72,1.06 4.45,1.73 6.18,2.41 12.23,4.34 12.23,9.81z"/>
  <path class="fil2" d="M771.14 3207.14c0.99,0.47 1.76,1.24 2.3,2.32 0.54,1.07 0.81,2.38 0.81,3.92 0,2.01 -0.46,3.65 -1.41,4.93 -0.93,1.27 -2.1,1.91 -3.48,1.91 -1.43,0 -2.62,-0.66 -3.56,-1.97 -0.94,-1.3 -1.4,-2.93 -1.4,-4.87 0,-0.94 0.08,-1.9 0.25,-2.87 0.17,-0.97 0.54,-2.4 1.08,-4.27l3.48 -14.08 4.67 0 -2.74 14.98zm14.01 0c0.99,0.47 1.76,1.24 2.29,2.32 0.55,1.07 0.82,2.38 0.82,3.92 0,2.01 -0.47,3.65 -1.4,4.93 -0.94,1.27 -2.11,1.91 -3.49,1.91 -1.43,0 -2.62,-0.66 -3.56,-1.97 -0.94,-1.3 -1.41,-2.93 -1.41,-4.87 0,-0.94 0.09,-1.9 0.27,-2.87 0.17,-0.97 0.53,-2.4 1.07,-4.27l3.48 -14.08 4.67 0 -2.74 14.98z"/>
  <path id="1" class="fil2" d="M822.81 3267.58c-5.19,0 -9.87,-1.55 -14.05,-4.67 -4.18,-3.12 -7.45,-7.41 -9.82,-12.87 -2.37,-5.47 -3.56,-11.62 -3.56,-18.46 0,-6.84 1.19,-12.99 3.56,-18.45 2.37,-5.47 5.66,-9.76 9.86,-12.88 4.2,-3.11 8.89,-4.67 14.08,-4.67 4.06,0 7.76,0.92 11.12,2.76 3.36,1.85 6.23,4.58 8.6,8.2l-4.82 6.33c-3.9,-5.56 -8.77,-8.34 -14.6,-8.34 -3.86,0 -7.34,1.17 -10.45,3.52 -3.11,2.34 -5.55,5.58 -7.31,9.7 -1.75,4.13 -2.63,8.73 -2.63,13.83 0,5.1 0.88,9.71 2.63,13.83 1.76,4.12 4.2,7.36 7.31,9.7 3.11,2.35 6.59,3.52 10.45,3.52 5.78,0 10.65,-2.81 14.6,-8.44l4.82 6.33c-2.37,3.62 -5.25,6.37 -8.64,8.25 -3.38,1.88 -7.1,2.81 -11.15,2.81z"/>
  <path id="2" class="fil2" d="M865.95 3212.98c5.44,0 9.6,1.81 12.49,5.43 2.89,3.62 4.34,9.01 4.34,16.19l0 32.18 -6.75 0 0 -7.04c-1.18,2.48 -2.88,4.37 -5.08,5.68 -2.19,1.31 -4.8,1.96 -7.82,1.96 -4.4,0 -7.91,-1.44 -10.56,-4.32 -2.64,-2.88 -3.96,-6.67 -3.96,-11.37 0,-4.69 1.26,-8.46 3.78,-11.31 2.52,-2.85 6.52,-4.27 12,-4.27l11.27 0 0 -1.91c0,-4.16 -0.89,-7.35 -2.66,-9.56 -1.79,-2.21 -4.4,-3.32 -7.86,-3.32 -2.33,0 -4.6,0.52 -6.83,1.56 -2.22,1.04 -4.09,2.43 -5.63,4.17l-2.96 -7.24c2.03,-2.21 4.44,-3.9 7.26,-5.07 2.81,-1.18 5.81,-1.76 8.97,-1.76zm-1.63 46.96c2.72,0 5.06,-0.82 7.04,-2.46 1.98,-1.65 3.41,-3.98 4.3,-6.99l0 -7.44 -10.97 0c-6.03,0 -9.04,2.74 -9.04,8.24 0,2.68 0.76,4.8 2.29,6.34 1.54,1.54 3.66,2.31 6.38,2.31z"/>
  <polygon id="3" class="fil2" points="895.97,3192.16 903.09,3192.16 903.09,3266.78 895.97,3266.78 "/>
  <path id="4" class="fil2" d="M916.65 3213.48l7.12 0 0 53.3 -7.12 0 0 -53.3zm3.56 -10.26c-1.38,0 -2.53,-0.6 -3.45,-1.81 -0.91,-1.21 -1.37,-2.68 -1.37,-4.43 0,-1.74 0.46,-3.23 1.37,-4.47 0.92,-1.24 2.07,-1.86 3.45,-1.86 1.39,0 2.54,0.59 3.45,1.76 0.92,1.17 1.37,2.63 1.37,4.37 0,1.81 -0.45,3.34 -1.37,4.58 -0.91,1.24 -2.06,1.86 -3.45,1.86z"/>
  <path id="5" class="fil2" d="M974.4 3192.16l0 74.62 -6.82 0 0 -8.45c-1.58,2.95 -3.59,5.2 -6,6.74 -2.43,1.54 -5.1,2.31 -8.01,2.31 -3.81,0 -7.21,-1.14 -10.23,-3.42 -3.01,-2.28 -5.37,-5.48 -7.08,-9.6 -1.71,-4.12 -2.56,-8.87 -2.56,-14.23 0,-5.36 0.85,-10.09 2.56,-14.18 1.71,-4.09 4.07,-7.28 7.08,-9.56 3.02,-2.28 6.42,-3.41 10.23,-3.41 2.82,0 5.41,0.72 7.78,2.16 2.37,1.44 4.35,3.57 5.93,6.38l0 -29.36 7.12 0zm-20.24 66.78c2.47,0 4.72,-0.79 6.74,-2.37 2.03,-1.57 3.62,-3.79 4.75,-6.64 1.14,-2.84 1.7,-6.11 1.7,-9.8 0,-3.69 -0.56,-6.96 -1.7,-9.81 -1.13,-2.85 -2.72,-5.04 -4.75,-6.58 -2.02,-1.55 -4.27,-2.32 -6.74,-2.32 -2.52,0 -4.78,0.77 -6.78,2.32 -2.01,1.54 -3.58,3.73 -4.75,6.58 -1.15,2.85 -1.74,6.12 -1.74,9.81 0,3.69 0.59,6.96 1.74,9.8 1.17,2.85 2.74,5.07 4.75,6.64 2,1.58 4.26,2.37 6.78,2.37z"/>
  <path id="6" class="fil2" d="M1002.19 3212.98c5.44,0 9.61,1.81 12.5,5.43 2.89,3.62 4.33,9.01 4.33,16.19l0 32.18 -6.74 0 0 -7.04c-1.19,2.48 -2.88,4.37 -5.08,5.68 -2.2,1.31 -4.81,1.96 -7.82,1.96 -4.4,0 -7.92,-1.44 -10.56,-4.32 -2.65,-2.88 -3.97,-6.67 -3.97,-11.37 0,-4.69 1.26,-8.46 3.78,-11.31 2.52,-2.85 6.53,-4.27 12.01,-4.27l11.27 0 0 -1.91c0,-4.16 -0.89,-7.35 -2.67,-9.56 -1.78,-2.21 -4.4,-3.32 -7.86,-3.32 -2.32,0 -4.6,0.52 -6.82,1.56 -2.22,1.04 -4.1,2.43 -5.63,4.17l-2.97 -7.24c2.03,-2.21 4.45,-3.9 7.26,-5.07 2.82,-1.18 5.81,-1.76 8.97,-1.76zm-1.62 46.96c2.72,0 5.06,-0.82 7.03,-2.46 1.99,-1.65 3.42,-3.98 4.31,-6.99l0 -7.44 -10.98 0c-6.02,0 -9.04,2.74 -9.04,8.24 0,2.68 0.77,4.8 2.3,6.34 1.53,1.54 3.66,2.31 6.38,2.31z"/>
  <path id="7" class="fil2" d="M1069.5 3192.16l0 74.62 -6.82 0 0 -8.45c-1.58,2.95 -3.58,5.2 -6,6.74 -2.43,1.54 -5.09,2.31 -8.01,2.31 -3.81,0 -7.21,-1.14 -10.23,-3.42 -3.01,-2.28 -5.37,-5.48 -7.08,-9.6 -1.7,-4.12 -2.56,-8.87 -2.56,-14.23 0,-5.36 0.86,-10.09 2.56,-14.18 1.71,-4.09 4.07,-7.28 7.08,-9.56 3.02,-2.28 6.42,-3.41 10.23,-3.41 2.82,0 5.41,0.72 7.79,2.16 2.36,1.44 4.35,3.57 5.92,6.38l0 -29.36 7.12 0zm-20.24 66.78c2.47,0 4.72,-0.79 6.75,-2.37 2.02,-1.57 3.61,-3.79 4.74,-6.64 1.14,-2.84 1.71,-6.11 1.71,-9.8 0,-3.69 -0.57,-6.96 -1.71,-9.81 -1.13,-2.85 -2.72,-5.04 -4.74,-6.58 -2.03,-1.55 -4.28,-2.32 -6.75,-2.32 -2.52,0 -4.78,0.77 -6.78,2.32 -2,1.54 -3.58,3.73 -4.74,6.58 -1.16,2.85 -1.74,6.12 -1.74,9.81 0,3.69 0.58,6.96 1.74,9.8 1.16,2.85 2.74,5.07 4.74,6.64 2,1.58 4.26,2.37 6.78,2.37z"/>
  <path id="8" class="fil2" d="M1138.43 3240.43c0,0.74 -0.04,1.71 -0.14,2.92l-31.87 0c0.44,4.69 1.96,8.46 4.55,11.31 2.59,2.85 5.82,4.28 9.68,4.28 4.69,0 8.47,-2.15 11.34,-6.44l3.93 6.23c-1.78,2.82 -4,4.97 -6.64,6.44 -2.64,1.48 -5.6,2.21 -8.85,2.21 -4.16,0 -7.84,-1.15 -11.05,-3.47 -3.22,-2.31 -5.7,-5.54 -7.45,-9.7 -1.76,-4.16 -2.63,-8.85 -2.63,-14.08 0,-5.16 0.85,-9.82 2.55,-13.98 1.71,-4.16 4.06,-7.39 7.05,-9.71 2.98,-2.31 6.36,-3.46 10.12,-3.46 3.75,0 7.1,1.15 10.04,3.46 2.94,2.32 5.24,5.55 6.9,9.71 1.65,4.16 2.47,8.92 2.47,14.28zm-19.41 -19.31c-3.41,0 -6.27,1.41 -8.57,4.23 -2.3,2.81 -3.64,6.5 -4.03,11.06l25.2 0c-0.4,-4.49 -1.74,-8.17 -4.04,-11.01 -2.3,-2.85 -5.16,-4.28 -8.56,-4.28z"/>
  <path id="9" class="fil2" d="M1168.23 3213.48l7.12 0 0 53.3 -7.12 0 0 -53.3zm3.56 -10.26c-1.38,0 -2.53,-0.6 -3.45,-1.81 -0.91,-1.21 -1.37,-2.68 -1.37,-4.43 0,-1.74 0.46,-3.23 1.37,-4.47 0.92,-1.24 2.07,-1.86 3.45,-1.86 1.39,0 2.54,0.59 3.45,1.76 0.92,1.17 1.37,2.63 1.37,4.37 0,1.81 -0.45,3.34 -1.37,4.58 -0.91,1.24 -2.06,1.86 -3.45,1.86z"/>
  <path id="10" class="fil2" d="M1209.89 3212.98c4.99,0 8.96,1.96 11.9,5.88 2.94,3.92 4.41,9.67 4.41,17.25l0 30.67 -7.12 0 0 -29.57c0,-5.16 -0.91,-9.05 -2.74,-11.66 -1.83,-2.62 -4.44,-3.93 -7.86,-3.93 -3.85,0 -6.89,1.53 -9.11,4.58 -2.22,3.05 -3.34,7.43 -3.34,13.12l0 27.46 -7.12 0 0 -53.3 6.82 0 0 8.04c1.44,-2.75 3.38,-4.86 5.83,-6.33 2.44,-1.48 5.22,-2.21 8.33,-2.21z"/>
  <path id="11" class="fil2" d="M1260.37 3212.98c4.99,0 8.97,1.96 11.9,5.88 2.94,3.92 4.41,9.67 4.41,17.25l0 30.67 -7.12 0 0 -29.57c0,-5.16 -0.91,-9.05 -2.74,-11.66 -1.83,-2.62 -4.44,-3.93 -7.86,-3.93 -3.85,0 -6.89,1.53 -9.11,4.58 -2.22,3.05 -3.33,7.43 -3.33,13.12l0 27.46 -7.12 0 0 -53.3 6.81 0 0 8.04c1.44,-2.75 3.38,-4.86 5.83,-6.33 2.44,-1.48 5.22,-2.21 8.33,-2.21z"/>
  <path id="12" class="fil2" d="M1306.93 3267.38c-3.91,0 -7.42,-1.17 -10.53,-3.52 -3.11,-2.34 -5.55,-5.58 -7.3,-9.7 -1.76,-4.12 -2.64,-8.8 -2.64,-14.03 0,-5.23 0.88,-9.91 2.64,-14.03 1.75,-4.12 4.19,-7.34 7.3,-9.66 3.11,-2.31 6.62,-3.46 10.53,-3.46 3.9,0 7.4,1.15 10.48,3.46 3.09,2.32 5.52,5.54 7.27,9.66 1.76,4.12 2.63,8.8 2.63,14.03 0,5.23 -0.87,9.91 -2.63,14.03 -1.75,4.12 -4.18,7.36 -7.27,9.7 -3.08,2.35 -6.58,3.52 -10.48,3.52zm0 -8.44c2.52,0 4.78,-0.79 6.78,-2.37 2,-1.57 3.57,-3.79 4.71,-6.64 1.13,-2.84 1.7,-6.11 1.7,-9.8 0,-3.69 -0.57,-6.96 -1.7,-9.81 -1.14,-2.85 -2.71,-5.04 -4.71,-6.58 -2,-1.55 -4.26,-2.32 -6.78,-2.32 -2.53,0 -4.79,0.77 -6.79,2.32 -2,1.54 -3.58,3.73 -4.74,6.58 -1.16,2.85 -1.74,6.12 -1.74,9.81 0,3.69 0.58,6.96 1.74,9.8 1.16,2.85 2.74,5.07 4.74,6.64 2,1.58 4.26,2.37 6.79,2.37z"/>
  <polygon id="13" class="fil2" points="1370.82,3213.48 1353.63,3266.78 1346.36,3266.78 1329.16,3213.48 1336.58,3213.48 1350.07,3256.22 1363.86,3213.48 "/>
  <path id="14" class="fil2" d="M1390.54 3212.98c5.44,0 9.6,1.81 12.49,5.43 2.89,3.62 4.33,9.01 4.33,16.19l0 32.18 -6.74 0 0 -7.04c-1.19,2.48 -2.88,4.37 -5.08,5.68 -2.19,1.31 -4.8,1.96 -7.82,1.96 -4.4,0 -7.91,-1.44 -10.56,-4.32 -2.65,-2.88 -3.97,-6.67 -3.97,-11.37 0,-4.69 1.26,-8.46 3.79,-11.31 2.52,-2.85 6.52,-4.27 12,-4.27l11.27 0 0 -1.91c0,-4.16 -0.89,-7.35 -2.67,-9.56 -1.78,-2.21 -4.4,-3.32 -7.85,-3.32 -2.33,0 -4.6,0.52 -6.83,1.56 -2.22,1.04 -4.1,2.43 -5.63,4.17l-2.96 -7.24c2.02,-2.21 4.44,-3.9 7.26,-5.07 2.81,-1.18 5.81,-1.76 8.97,-1.76zm-1.63 46.96c2.72,0 5.06,-0.82 7.04,-2.46 1.98,-1.65 3.41,-3.98 4.3,-6.99l0 -7.44 -10.97 0c-6.03,0 -9.05,2.74 -9.05,8.24 0,2.68 0.77,4.8 2.3,6.34 1.54,1.54 3.66,2.31 6.38,2.31z"/>
  <path id="15" class="fil2" d="M1437.9 3267.38c-4,0 -7.57,-1.17 -10.71,-3.52 -3.14,-2.34 -5.59,-5.58 -7.38,-9.7 -1.77,-4.12 -2.66,-8.8 -2.66,-14.03 0,-5.23 0.89,-9.91 2.66,-14.03 1.79,-4.12 4.24,-7.34 7.38,-9.66 3.14,-2.31 6.71,-3.46 10.71,-3.46 3.56,0 6.74,0.97 9.53,2.91 2.79,1.95 4.95,4.76 6.49,8.45l-5.41 4.73c-1.24,-2.55 -2.77,-4.46 -4.6,-5.74 -1.83,-1.27 -3.86,-1.91 -6.08,-1.91 -2.57,0 -4.88,0.77 -6.93,2.32 -2.05,1.54 -3.66,3.73 -4.82,6.58 -1.16,2.85 -1.74,6.12 -1.74,9.81 0,3.75 0.58,7.06 1.74,9.91 1.16,2.84 2.77,5.04 4.82,6.58 2.05,1.54 4.36,2.32 6.93,2.32 2.22,0 4.25,-0.64 6.08,-1.92 1.83,-1.27 3.36,-3.18 4.6,-5.73l5.41 4.63c-1.54,3.69 -3.7,6.52 -6.49,8.5 -2.79,1.97 -5.97,2.96 -9.53,2.96z"/>
  <path id="16" class="fil2" d="M1463.11 3213.48l7.12 0 0 53.3 -7.12 0 0 -53.3zm3.56 -10.26c-1.39,0 -2.54,-0.6 -3.45,-1.81 -0.91,-1.21 -1.37,-2.68 -1.37,-4.43 0,-1.74 0.46,-3.23 1.37,-4.47 0.91,-1.24 2.06,-1.86 3.45,-1.86 1.38,0 2.53,0.59 3.45,1.76 0.91,1.17 1.37,2.63 1.37,4.37 0,1.81 -0.46,3.34 -1.37,4.58 -0.92,1.24 -2.07,1.86 -3.45,1.86z"/>
  <path id="17" class="fil2" d="M1500.62 3267.38c-3.91,0 -7.42,-1.17 -10.53,-3.52 -3.11,-2.34 -5.55,-5.58 -7.3,-9.7 -1.76,-4.12 -2.63,-8.8 -2.63,-14.03 0,-5.23 0.87,-9.91 2.63,-14.03 1.75,-4.12 4.19,-7.34 7.3,-9.66 3.11,-2.31 6.62,-3.46 10.53,-3.46 3.9,0 7.4,1.15 10.49,3.46 3.08,2.32 5.51,5.54 7.26,9.66 1.76,4.12 2.63,8.8 2.63,14.03 0,5.23 -0.87,9.91 -2.63,14.03 -1.75,4.12 -4.18,7.36 -7.26,9.7 -3.09,2.35 -6.59,3.52 -10.49,3.52zm0 -8.44c2.52,0 4.78,-0.79 6.78,-2.37 2,-1.57 3.57,-3.79 4.71,-6.64 1.13,-2.84 1.7,-6.11 1.7,-9.8 0,-3.69 -0.57,-6.96 -1.7,-9.81 -1.14,-2.85 -2.71,-5.04 -4.71,-6.58 -2,-1.55 -4.26,-2.32 -6.78,-2.32 -2.52,0 -4.79,0.77 -6.78,2.32 -2.01,1.54 -3.59,3.73 -4.75,6.58 -1.16,2.85 -1.74,6.12 -1.74,9.81 0,3.69 0.58,6.96 1.74,9.8 1.16,2.85 2.74,5.07 4.75,6.64 1.99,1.58 4.26,2.37 6.78,2.37zm4.45 -66.28l9.04 0 -12.45 13.07 -6.67 0 10.08 -13.07z"/>
  <path id="18" class="fil2" d="M1551.84 3212.98c4.99,0 8.96,1.96 11.89,5.88 2.94,3.92 4.42,9.67 4.42,17.25l0 30.67 -7.12 0 0 -29.57c0,-5.16 -0.92,-9.05 -2.74,-11.66 -1.83,-2.62 -4.45,-3.93 -7.86,-3.93 -3.86,0 -6.89,1.53 -9.12,4.58 -2.22,3.05 -3.33,7.43 -3.33,13.12l0 27.46 -7.12 0 0 -53.3 6.82 0 0 8.04c1.43,-2.75 3.37,-4.86 5.82,-6.33 2.45,-1.48 5.23,-2.21 8.34,-2.21z"/>
  <path id="19" class="fil2" d="M1622.11 3212.98c3.8,0 7.21,1.13 10.23,3.41 3.01,2.28 5.37,5.47 7.08,9.56 1.7,4.09 2.55,8.82 2.55,14.18 0,5.36 -0.85,10.11 -2.55,14.23 -1.71,4.12 -4.07,7.32 -7.08,9.6 -3.02,2.28 -6.43,3.42 -10.23,3.42 -2.82,0 -5.4,-0.73 -7.75,-2.21 -2.34,-1.47 -4.33,-3.62 -5.96,-6.44l0 27.56 -7.12 0 0 -72.81 6.82 0 0 8.45c1.58,-2.95 3.59,-5.18 6,-6.69 2.43,-1.51 5.1,-2.26 8.01,-2.26zm-0.59 45.96c2.52,0 4.77,-0.79 6.78,-2.37 2,-1.57 3.58,-3.79 4.75,-6.64 1.15,-2.84 1.73,-6.11 1.73,-9.8 0,-3.69 -0.58,-6.96 -1.73,-9.81 -1.17,-2.85 -2.75,-5.04 -4.75,-6.58 -2.01,-1.55 -4.26,-2.32 -6.78,-2.32 -2.47,0 -4.71,0.79 -6.71,2.37 -2,1.57 -3.58,3.77 -4.75,6.58 -1.16,2.82 -1.74,6.07 -1.74,9.76 0,3.69 0.57,6.96 1.71,9.8 1.13,2.85 2.72,5.07 4.74,6.64 2.02,1.58 4.28,2.37 6.75,2.37z"/>
  <path id="20" class="fil2" d="M1665.77 3212.98c5.44,0 9.6,1.81 12.49,5.43 2.89,3.62 4.34,9.01 4.34,16.19l0 32.18 -6.75 0 0 -7.04c-1.18,2.48 -2.88,4.37 -5.07,5.68 -2.2,1.31 -4.81,1.96 -7.82,1.96 -4.41,0 -7.92,-1.44 -10.57,-4.32 -2.64,-2.88 -3.96,-6.67 -3.96,-11.37 0,-4.69 1.26,-8.46 3.78,-11.31 2.52,-2.85 6.52,-4.27 12.01,-4.27l11.27 0 0 -1.91c0,-4.16 -0.9,-7.35 -2.67,-9.56 -1.79,-2.21 -4.4,-3.32 -7.86,-3.32 -2.33,0 -4.6,0.52 -6.83,1.56 -2.21,1.04 -4.09,2.43 -5.63,4.17l-2.96 -7.24c2.03,-2.21 4.45,-3.9 7.26,-5.07 2.82,-1.18 5.81,-1.76 8.97,-1.76zm-1.63 46.96c2.72,0 5.07,-0.82 7.04,-2.46 1.98,-1.65 3.41,-3.98 4.31,-6.99l0 -7.44 -10.98 0c-6.03,0 -9.04,2.74 -9.04,8.24 0,2.68 0.76,4.8 2.3,6.34 1.53,1.54 3.65,2.31 6.37,2.31z"/>
  <path id="21" class="fil2" d="M1702.61 3222.43c1.24,-3.09 3.07,-5.43 5.49,-7.04 2.42,-1.61 5.36,-2.41 8.82,-2.41l0 9.35c-0.4,-0.07 -0.94,-0.1 -1.63,-0.1 -3.86,0 -6.88,1.56 -9.08,4.67 -2.2,3.12 -3.3,7.56 -3.3,13.33l0 26.55 -7.12 0 0 -53.3 6.82 0 0 8.95z"/>
  <path id="22" class="fil2" d="M1739.9 3212.98c5.44,0 9.6,1.81 12.49,5.43 2.89,3.62 4.33,9.01 4.33,16.19l0 32.18 -6.74 0 0 -7.04c-1.19,2.48 -2.88,4.37 -5.08,5.68 -2.19,1.31 -4.8,1.96 -7.82,1.96 -4.4,0 -7.91,-1.44 -10.56,-4.32 -2.65,-2.88 -3.97,-6.67 -3.97,-11.37 0,-4.69 1.26,-8.46 3.78,-11.31 2.53,-2.85 6.53,-4.27 12.01,-4.27l11.27 0 0 -1.91c0,-4.16 -0.89,-7.35 -2.67,-9.56 -1.78,-2.21 -4.4,-3.32 -7.85,-3.32 -2.33,0 -4.6,0.52 -6.83,1.56 -2.22,1.04 -4.1,2.43 -5.63,4.17l-2.96 -7.24c2.02,-2.21 4.44,-3.9 7.26,-5.07 2.81,-1.18 5.8,-1.76 8.97,-1.76zm-1.63 46.96c2.72,0 5.06,-0.82 7.04,-2.46 1.98,-1.65 3.41,-3.98 4.3,-6.99l0 -7.44 -10.97 0c-6.03,0 -9.05,2.74 -9.05,8.24 0,2.68 0.77,4.8 2.3,6.34 1.54,1.54 3.66,2.31 6.38,2.31z"/>
  <path id="23" class="fil2" d="M1806.98 3267.38c-4.01,0 -7.57,-1.17 -10.71,-3.52 -3.14,-2.34 -5.6,-5.58 -7.38,-9.7 -1.78,-4.12 -2.67,-8.8 -2.67,-14.03 0,-5.23 0.89,-9.91 2.67,-14.03 1.78,-4.12 4.24,-7.34 7.38,-9.66 3.14,-2.31 6.7,-3.46 10.71,-3.46 3.56,0 6.73,0.97 9.53,2.91 2.78,1.95 4.95,4.76 6.48,8.45l-5.41 4.73c-1.24,-2.55 -2.77,-4.46 -4.6,-5.74 -1.82,-1.27 -3.85,-1.91 -6.08,-1.91 -2.56,0 -4.88,0.77 -6.93,2.32 -2.04,1.54 -3.65,3.73 -4.82,6.58 -1.15,2.85 -1.74,6.12 -1.74,9.81 0,3.75 0.59,7.06 1.74,9.91 1.17,2.84 2.78,5.04 4.82,6.58 2.05,1.54 4.37,2.32 6.93,2.32 2.23,0 4.26,-0.64 6.08,-1.92 1.83,-1.27 3.36,-3.18 4.6,-5.73l5.41 4.63c-1.53,3.69 -3.7,6.52 -6.48,8.5 -2.8,1.97 -5.97,2.96 -9.53,2.96z"/>
  <path id="24" class="fil2" d="M1846.49 3212.98c5.44,0 9.6,1.81 12.49,5.43 2.89,3.62 4.34,9.01 4.34,16.19l0 32.18 -6.75 0 0 -7.04c-1.18,2.48 -2.88,4.37 -5.07,5.68 -2.2,1.31 -4.81,1.96 -7.83,1.96 -4.4,0 -7.91,-1.44 -10.56,-4.32 -2.64,-2.88 -3.96,-6.67 -3.96,-11.37 0,-4.69 1.26,-8.46 3.78,-11.31 2.52,-2.85 6.52,-4.27 12.01,-4.27l11.26 0 0 -1.91c0,-4.16 -0.89,-7.35 -2.66,-9.56 -1.79,-2.21 -4.4,-3.32 -7.86,-3.32 -2.33,0 -4.6,0.52 -6.83,1.56 -2.21,1.04 -4.09,2.43 -5.63,4.17l-2.96 -7.24c2.03,-2.21 4.44,-3.9 7.26,-5.07 2.82,-1.18 5.81,-1.76 8.97,-1.76zm-1.63 46.96c2.72,0 5.07,-0.82 7.04,-2.46 1.98,-1.65 3.41,-3.98 4.3,-6.99l0 -7.44 -10.97 0c-6.03,0 -9.04,2.74 -9.04,8.24 0,2.68 0.76,4.8 2.3,6.34 1.53,1.54 3.65,2.31 6.37,2.31z"/>
  <path id="25" class="fil2" d="M1913.8 3192.16l0 74.62 -6.83 0 0 -8.45c-1.57,2.95 -3.58,5.2 -6,6.74 -2.42,1.54 -5.09,2.31 -8,2.31 -3.81,0 -7.22,-1.14 -10.23,-3.42 -3.02,-2.28 -5.37,-5.48 -7.08,-9.6 -1.71,-4.12 -2.56,-8.87 -2.56,-14.23 0,-5.36 0.85,-10.09 2.56,-14.18 1.71,-4.09 4.06,-7.28 7.08,-9.56 3.01,-2.28 6.42,-3.41 10.23,-3.41 2.82,0 5.41,0.72 7.78,2.16 2.37,1.44 4.35,3.57 5.93,6.38l0 -29.36 7.12 0zm-20.24 66.78c2.47,0 4.72,-0.79 6.74,-2.37 2.03,-1.57 3.61,-3.79 4.75,-6.64 1.14,-2.84 1.7,-6.11 1.7,-9.8 0,-3.69 -0.56,-6.96 -1.7,-9.81 -1.14,-2.85 -2.72,-5.04 -4.75,-6.58 -2.02,-1.55 -4.27,-2.32 -6.74,-2.32 -2.52,0 -4.78,0.77 -6.78,2.32 -2.01,1.54 -3.58,3.73 -4.75,6.58 -1.16,2.85 -1.74,6.12 -1.74,9.81 0,3.69 0.58,6.96 1.74,9.8 1.17,2.85 2.74,5.07 4.75,6.64 2,1.58 4.26,2.37 6.78,2.37z"/>
  <path id="26" class="fil2" d="M1941.59 3212.98c5.44,0 9.61,1.81 12.5,5.43 2.89,3.62 4.33,9.01 4.33,16.19l0 32.18 -6.74 0 0 -7.04c-1.19,2.48 -2.89,4.37 -5.08,5.68 -2.2,1.31 -4.81,1.96 -7.82,1.96 -4.4,0 -7.92,-1.44 -10.56,-4.32 -2.65,-2.88 -3.97,-6.67 -3.97,-11.37 0,-4.69 1.26,-8.46 3.78,-11.31 2.52,-2.85 6.52,-4.27 12.01,-4.27l11.27 0 0 -1.91c0,-4.16 -0.89,-7.35 -2.67,-9.56 -1.78,-2.21 -4.4,-3.32 -7.86,-3.32 -2.33,0 -4.6,0.52 -6.82,1.56 -2.22,1.04 -4.1,2.43 -5.63,4.17l-2.97 -7.24c2.03,-2.21 4.45,-3.9 7.26,-5.07 2.82,-1.18 5.81,-1.76 8.97,-1.76zm-1.63 46.96c2.72,0 5.07,-0.82 7.04,-2.46 1.99,-1.65 3.42,-3.98 4.31,-6.99l0 -7.44 -10.98 0c-6.03,0 -9.04,2.74 -9.04,8.24 0,2.68 0.77,4.8 2.3,6.34 1.53,1.54 3.65,2.31 6.37,2.31z"/>
  <path id="27" class="fil2" d="M2012.53 3212.98c4.99,0 8.96,1.96 11.89,5.88 2.95,3.92 4.42,9.67 4.42,17.25l0 30.67 -7.12 0 0 -29.57c0,-5.16 -0.91,-9.05 -2.74,-11.66 -1.83,-2.62 -4.45,-3.93 -7.86,-3.93 -3.85,0 -6.89,1.53 -9.12,4.58 -2.22,3.05 -3.33,7.43 -3.33,13.12l0 27.46 -7.12 0 0 -53.3 6.82 0 0 8.04c1.44,-2.75 3.37,-4.86 5.82,-6.33 2.45,-1.48 5.23,-2.21 8.34,-2.21z"/>
  <path id="28" class="fil2" d="M2077.76 3240.43c0,0.74 -0.05,1.71 -0.15,2.92l-31.87 0c0.44,4.69 1.96,8.46 4.56,11.31 2.59,2.85 5.82,4.28 9.67,4.28 4.7,0 8.48,-2.15 11.35,-6.44l3.92 6.23c-1.78,2.82 -3.99,4.97 -6.64,6.44 -2.63,1.48 -5.59,2.21 -8.85,2.21 -4.16,0 -7.83,-1.15 -11.05,-3.47 -3.21,-2.31 -5.69,-5.54 -7.45,-9.7 -1.75,-4.16 -2.63,-8.85 -2.63,-14.08 0,-5.16 0.86,-9.82 2.56,-13.98 1.71,-4.16 4.05,-7.39 7.04,-9.71 2.99,-2.31 6.36,-3.46 10.12,-3.46 3.76,0 7.1,1.15 10.04,3.46 2.94,2.32 5.24,5.55 6.9,9.71 1.65,4.16 2.48,8.92 2.48,14.28zm-19.42 -19.31c-3.41,0 -6.26,1.41 -8.56,4.23 -2.3,2.81 -3.64,6.5 -4.04,11.06l25.2 0c-0.39,-4.49 -1.74,-8.17 -4.04,-11.01 -2.3,-2.85 -5.15,-4.28 -8.56,-4.28z"/>
  <path id="29" class="fil2" d="M2104.74 3267.38c-4,0 -7.57,-1.17 -10.71,-3.52 -3.14,-2.34 -5.59,-5.58 -7.38,-9.7 -1.77,-4.12 -2.66,-8.8 -2.66,-14.03 0,-5.23 0.89,-9.91 2.66,-14.03 1.79,-4.12 4.24,-7.34 7.38,-9.66 3.14,-2.31 6.71,-3.46 10.71,-3.46 3.56,0 6.74,0.97 9.53,2.91 2.79,1.95 4.96,4.76 6.49,8.45l-5.41 4.73c-1.24,-2.55 -2.77,-4.46 -4.6,-5.74 -1.83,-1.27 -3.86,-1.91 -6.08,-1.91 -2.57,0 -4.88,0.77 -6.93,2.32 -2.05,1.54 -3.66,3.73 -4.82,6.58 -1.16,2.85 -1.74,6.12 -1.74,9.81 0,3.75 0.58,7.06 1.74,9.91 1.16,2.84 2.77,5.04 4.82,6.58 2.05,1.54 4.36,2.32 6.93,2.32 2.22,0 4.25,-0.64 6.08,-1.92 1.83,-1.27 3.36,-3.18 4.6,-5.73l5.41 4.63c-1.53,3.69 -3.7,6.52 -6.49,8.5 -2.79,1.97 -5.97,2.96 -9.53,2.96z"/>
  <path id="30" class="fil2" d="M2164.86 3240.43c0,0.74 -0.05,1.71 -0.15,2.92l-31.87 0c0.44,4.69 1.96,8.46 4.55,11.31 2.6,2.85 5.83,4.28 9.68,4.28 4.7,0 8.48,-2.15 11.34,-6.44l3.93 6.23c-1.78,2.82 -3.99,4.97 -6.64,6.44 -2.64,1.48 -5.59,2.21 -8.85,2.21 -4.16,0 -7.83,-1.15 -11.05,-3.47 -3.21,-2.31 -5.7,-5.54 -7.45,-9.7 -1.75,-4.16 -2.63,-8.85 -2.63,-14.08 0,-5.16 0.85,-9.82 2.56,-13.98 1.71,-4.16 4.05,-7.39 7.04,-9.71 2.99,-2.31 6.36,-3.46 10.12,-3.46 3.75,0 7.1,1.15 10.04,3.46 2.94,2.32 5.24,5.55 6.9,9.71 1.65,4.16 2.48,8.92 2.48,14.28zm-19.42 -19.31c-3.41,0 -6.26,1.41 -8.56,4.23 -2.3,2.81 -3.64,6.5 -4.04,11.06l25.2 0c-0.39,-4.49 -1.74,-8.17 -4.04,-11.01 -2.3,-2.85 -5.15,-4.28 -8.56,-4.28z"/>
  <path id="31" class="fil2" d="M2185.99 3267.38c-3.22,0 -6.3,-0.58 -9.27,-1.76 -2.97,-1.17 -5.29,-2.66 -6.97,-4.47l2.97 -7.65c1.73,1.68 3.83,3.02 6.3,4.03 2.47,1 4.96,1.51 7.48,1.51 6.23,0 9.34,-2.42 9.34,-7.24 0,-1.61 -0.42,-2.89 -1.26,-3.83 -0.84,-0.94 -1.88,-1.62 -3.15,-2.06 -1.26,-0.43 -3.05,-0.92 -5.37,-1.46 -3.16,-0.67 -5.75,-1.44 -7.74,-2.31 -2.01,-0.87 -3.73,-2.35 -5.16,-4.42 -1.43,-2.08 -2.15,-5 -2.15,-8.75 0,-4.83 1.48,-8.7 4.45,-11.62 2.97,-2.92 6.95,-4.37 11.94,-4.37 2.61,0 5.24,0.43 7.85,1.3 2.62,0.87 4.77,2.05 6.45,3.52l-3.03 7.65c-3.22,-2.82 -7,-4.23 -11.35,-4.23 -3.01,0 -5.31,0.67 -6.89,2.01 -1.58,1.34 -2.37,3.12 -2.37,5.33 0,1.75 0.44,3.12 1.33,4.13 0.89,1 1.99,1.74 3.3,2.21 1.31,0.47 3.15,1.01 5.52,1.61 3.17,0.74 5.72,1.52 7.67,2.36 1.95,0.84 3.63,2.26 5,4.28 1.39,2.01 2.08,4.82 2.08,8.44 0,4.83 -1.52,8.67 -4.56,11.52 -3.04,2.85 -7.17,4.27 -12.41,4.27z"/>
  <path id="32" class="fil2" d="M2211.86 3213.48l7.12 0 0 53.3 -7.12 0 0 -53.3zm3.56 -10.26c-1.39,0 -2.54,-0.6 -3.45,-1.81 -0.91,-1.21 -1.37,-2.68 -1.37,-4.43 0,-1.74 0.46,-3.23 1.37,-4.47 0.91,-1.24 2.06,-1.86 3.45,-1.86 1.38,0 2.53,0.59 3.45,1.76 0.91,1.17 1.37,2.63 1.37,4.37 0,1.81 -0.46,3.34 -1.37,4.58 -0.92,1.24 -2.07,1.86 -3.45,1.86z"/>
  <path id="33" class="fil2" d="M2269.61 3192.16l0 74.62 -6.83 0 0 -8.45c-1.57,2.95 -3.58,5.2 -6,6.74 -2.42,1.54 -5.09,2.31 -8,2.31 -3.81,0 -7.22,-1.14 -10.23,-3.42 -3.02,-2.28 -5.38,-5.48 -7.09,-9.6 -1.7,-4.12 -2.55,-8.87 -2.55,-14.23 0,-5.36 0.85,-10.09 2.55,-14.18 1.71,-4.09 4.07,-7.28 7.09,-9.56 3.01,-2.28 6.42,-3.41 10.23,-3.41 2.81,0 5.41,0.72 7.78,2.16 2.37,1.44 4.35,3.57 5.93,6.38l0 -29.36 7.12 0zm-20.24 66.78c2.47,0 4.72,-0.79 6.74,-2.37 2.03,-1.57 3.61,-3.79 4.75,-6.64 1.13,-2.84 1.7,-6.11 1.7,-9.8 0,-3.69 -0.57,-6.96 -1.7,-9.81 -1.14,-2.85 -2.72,-5.04 -4.75,-6.58 -2.02,-1.55 -4.27,-2.32 -6.74,-2.32 -2.52,0 -4.79,0.77 -6.78,2.32 -2.01,1.54 -3.59,3.73 -4.75,6.58 -1.16,2.85 -1.74,6.12 -1.74,9.81 0,3.69 0.58,6.96 1.74,9.8 1.16,2.85 2.74,5.07 4.75,6.64 1.99,1.58 4.26,2.37 6.78,2.37z"/>
  <path id="34" class="fil2" d="M2297.4 3212.98c5.44,0 9.61,1.81 12.5,5.43 2.88,3.62 4.33,9.01 4.33,16.19l0 32.18 -6.74 0 0 -7.04c-1.19,2.48 -2.89,4.37 -5.08,5.68 -2.2,1.31 -4.81,1.96 -7.82,1.96 -4.4,0 -7.92,-1.44 -10.57,-4.32 -2.64,-2.88 -3.96,-6.67 -3.96,-11.37 0,-4.69 1.26,-8.46 3.78,-11.31 2.52,-2.85 6.52,-4.27 12.01,-4.27l11.27 0 0 -1.91c0,-4.16 -0.9,-7.35 -2.67,-9.56 -1.79,-2.21 -4.4,-3.32 -7.86,-3.32 -2.33,0 -4.6,0.52 -6.82,1.56 -2.22,1.04 -4.1,2.43 -5.63,4.17l-2.97 -7.24c2.03,-2.21 4.45,-3.9 7.26,-5.07 2.82,-1.18 5.81,-1.76 8.97,-1.76zm-1.63 46.96c2.72,0 5.07,-0.82 7.04,-2.46 1.98,-1.65 3.41,-3.98 4.31,-6.99l0 -7.44 -10.98 0c-6.03,0 -9.04,2.74 -9.04,8.24 0,2.68 0.76,4.8 2.3,6.34 1.53,1.54 3.65,2.31 6.37,2.31z"/>
  <path id="35" class="fil2" d="M2364.71 3192.16l0 74.62 -6.82 0 0 -8.45c-1.58,2.95 -3.59,5.2 -6,6.74 -2.43,1.54 -5.1,2.31 -8.01,2.31 -3.81,0 -7.21,-1.14 -10.23,-3.42 -3.01,-2.28 -5.37,-5.48 -7.08,-9.6 -1.7,-4.12 -2.56,-8.87 -2.56,-14.23 0,-5.36 0.86,-10.09 2.56,-14.18 1.71,-4.09 4.07,-7.28 7.08,-9.56 3.02,-2.28 6.42,-3.41 10.23,-3.41 2.82,0 5.41,0.72 7.78,2.16 2.37,1.44 4.35,3.57 5.93,6.38l0 -29.36 7.12 0zm-20.24 66.78c2.47,0 4.72,-0.79 6.74,-2.37 2.03,-1.57 3.62,-3.79 4.75,-6.64 1.14,-2.84 1.7,-6.11 1.7,-9.8 0,-3.69 -0.56,-6.96 -1.7,-9.81 -1.13,-2.85 -2.72,-5.04 -4.75,-6.58 -2.02,-1.55 -4.27,-2.32 -6.74,-2.32 -2.52,0 -4.78,0.77 -6.78,2.32 -2,1.54 -3.58,3.73 -4.75,6.58 -1.15,2.85 -1.74,6.12 -1.74,9.81 0,3.69 0.59,6.96 1.74,9.8 1.17,2.85 2.75,5.07 4.75,6.64 2,1.58 4.26,2.37 6.78,2.37z"/>
  <path id="36" class="fil2" d="M2447.28 3212.98c4.94,0 8.86,1.94 11.75,5.83 2.89,3.89 4.34,9.65 4.34,17.3l0 30.67 -7.12 0 0 -29.57c0,-5.16 -0.87,-9.05 -2.63,-11.66 -1.75,-2.62 -4.26,-3.93 -7.52,-3.93 -3.61,0 -6.47,1.53 -8.6,4.58 -2.13,3.05 -3.19,7.43 -3.19,13.12l0 27.46 -7.11 0 0 -29.57c0,-5.16 -0.88,-9.05 -2.63,-11.66 -1.76,-2.62 -4.27,-3.93 -7.53,-3.93 -3.61,0 -6.48,1.53 -8.6,4.58 -2.12,3.05 -3.18,7.43 -3.18,13.12l0 27.46 -7.12 0 0 -53.3 6.81 0 0 7.94c1.44,-2.75 3.32,-4.84 5.64,-6.28 2.32,-1.44 4.97,-2.16 7.93,-2.16 3.07,0 5.78,0.83 8.16,2.51 2.37,1.68 4.2,4.12 5.48,7.34 1.48,-3.08 3.54,-5.5 6.19,-7.24 2.65,-1.74 5.62,-2.61 8.93,-2.61z"/>
  <path id="37" class="fil2" d="M2512.21 3240.43c0,0.74 -0.04,1.71 -0.15,2.92l-31.87 0c0.45,4.69 1.96,8.46 4.56,11.31 2.59,2.85 5.82,4.28 9.68,4.28 4.69,0 8.47,-2.15 11.34,-6.44l3.93 6.23c-1.79,2.82 -4,4.97 -6.64,6.44 -2.64,1.48 -5.6,2.21 -8.86,2.21 -4.15,0 -7.83,-1.15 -11.04,-3.47 -3.22,-2.31 -5.7,-5.54 -7.46,-9.7 -1.75,-4.16 -2.63,-8.85 -2.63,-14.08 0,-5.16 0.86,-9.82 2.56,-13.98 1.71,-4.16 4.05,-7.39 7.05,-9.71 2.98,-2.31 6.36,-3.46 10.12,-3.46 3.75,0 7.09,1.15 10.04,3.46 2.94,2.32 5.24,5.55 6.89,9.71 1.66,4.16 2.48,8.92 2.48,14.28zm-19.41 -19.31c-3.42,0 -6.27,1.41 -8.57,4.23 -2.3,2.81 -3.64,6.5 -4.04,11.06l25.2 0c-0.39,-4.49 -1.74,-8.17 -4.04,-11.01 -2.3,-2.85 -5.15,-4.28 -8.55,-4.28zm4.44 -28.46l9.05 0 -12.46 13.07 -6.67 0 10.08 -13.07z"/>
  <path id="38" class="fil2" d="M2559.14 3192.16l0 74.62 -6.83 0 0 -8.45c-1.57,2.95 -3.58,5.2 -6,6.74 -2.42,1.54 -5.09,2.31 -8,2.31 -3.81,0 -7.22,-1.14 -10.23,-3.42 -3.01,-2.28 -5.37,-5.48 -7.08,-9.6 -1.71,-4.12 -2.56,-8.87 -2.56,-14.23 0,-5.36 0.85,-10.09 2.56,-14.18 1.71,-4.09 4.07,-7.28 7.08,-9.56 3.01,-2.28 6.42,-3.41 10.23,-3.41 2.82,0 5.41,0.72 7.78,2.16 2.37,1.44 4.35,3.57 5.93,6.38l0 -29.36 7.12 0zm-20.24 66.78c2.47,0 4.72,-0.79 6.74,-2.37 2.03,-1.57 3.62,-3.79 4.75,-6.64 1.14,-2.84 1.7,-6.11 1.7,-9.8 0,-3.69 -0.56,-6.96 -1.7,-9.81 -1.13,-2.85 -2.72,-5.04 -4.75,-6.58 -2.02,-1.55 -4.27,-2.32 -6.74,-2.32 -2.52,0 -4.78,0.77 -6.78,2.32 -2.01,1.54 -3.58,3.73 -4.75,6.58 -1.15,2.85 -1.74,6.12 -1.74,9.81 0,3.69 0.59,6.96 1.74,9.8 1.17,2.85 2.74,5.07 4.75,6.64 2,1.58 4.26,2.37 6.78,2.37z"/>
  <path id="39" class="fil2" d="M2572.63 3213.48l7.12 0 0 53.3 -7.12 0 0 -53.3zm3.56 -10.26c-1.39,0 -2.54,-0.6 -3.45,-1.81 -0.92,-1.21 -1.37,-2.68 -1.37,-4.43 0,-1.74 0.45,-3.23 1.37,-4.47 0.91,-1.24 2.06,-1.86 3.45,-1.86 1.38,0 2.53,0.59 3.45,1.76 0.91,1.17 1.37,2.63 1.37,4.37 0,1.81 -0.46,3.34 -1.37,4.58 -0.92,1.24 -2.07,1.86 -3.45,1.86z"/>
  <path id="40" class="fil2" d="M2610.43 3267.38c-4,0 -7.57,-1.17 -10.71,-3.52 -3.14,-2.34 -5.59,-5.58 -7.38,-9.7 -1.77,-4.12 -2.66,-8.8 -2.66,-14.03 0,-5.23 0.89,-9.91 2.66,-14.03 1.79,-4.12 4.24,-7.34 7.38,-9.66 3.14,-2.31 6.71,-3.46 10.71,-3.46 3.56,0 6.74,0.97 9.53,2.91 2.79,1.95 4.96,4.76 6.49,8.45l-5.41 4.73c-1.24,-2.55 -2.77,-4.46 -4.6,-5.74 -1.83,-1.27 -3.86,-1.91 -6.08,-1.91 -2.57,0 -4.88,0.77 -6.93,2.32 -2.05,1.54 -3.66,3.73 -4.82,6.58 -1.16,2.85 -1.74,6.12 -1.74,9.81 0,3.75 0.58,7.06 1.74,9.91 1.16,2.84 2.77,5.04 4.82,6.58 2.05,1.54 4.36,2.32 6.93,2.32 2.22,0 4.25,-0.64 6.08,-1.92 1.83,-1.27 3.36,-3.18 4.6,-5.73l5.41 4.63c-1.53,3.69 -3.7,6.52 -6.49,8.5 -2.79,1.97 -5.97,2.96 -9.53,2.96z"/>
  <path id="41" class="fil2" d="M2649.95 3212.98c5.44,0 9.6,1.81 12.49,5.43 2.89,3.62 4.33,9.01 4.33,16.19l0 32.18 -6.74 0 0 -7.04c-1.19,2.48 -2.88,4.37 -5.08,5.68 -2.2,1.31 -4.81,1.96 -7.82,1.96 -4.4,0 -7.92,-1.44 -10.56,-4.32 -2.65,-2.88 -3.97,-6.67 -3.97,-11.37 0,-4.69 1.26,-8.46 3.78,-11.31 2.52,-2.85 6.53,-4.27 12.01,-4.27l11.27 0 0 -1.91c0,-4.16 -0.89,-7.35 -2.67,-9.56 -1.78,-2.21 -4.4,-3.32 -7.86,-3.32 -2.32,0 -4.59,0.52 -6.82,1.56 -2.22,1.04 -4.1,2.43 -5.63,4.17l-2.96 -7.24c2.02,-2.21 4.44,-3.9 7.26,-5.07 2.81,-1.18 5.8,-1.76 8.97,-1.76zm-1.63 46.96c2.72,0 5.06,-0.82 7.04,-2.46 1.98,-1.65 3.41,-3.98 4.3,-6.99l0 -7.44 -10.97 0c-6.03,0 -9.05,2.74 -9.05,8.24 0,2.68 0.77,4.8 2.3,6.34 1.53,1.54 3.66,2.31 6.38,2.31z"/>
  <path id="42" class="fil2" d="M2734.67 3213.48l-19.05 58.63c-1.68,5.43 -3.64,9.25 -5.89,11.47 -2.25,2.21 -4.95,3.31 -8.12,3.31 -1.93,0 -3.79,-0.42 -5.6,-1.25 -1.8,-0.84 -3.29,-2.06 -4.48,-3.67l3.04 -7.24c2.02,2.61 4.37,3.92 7.04,3.92 1.73,0 3.17,-0.62 4.34,-1.86 1.15,-1.24 2.21,-3.37 3.14,-6.39l1.27 -3.72 -17.35 -53.2 7.42 0 13.71 42.64 13.57 -42.64 6.96 0z"/>
  <path id="43" class="fil2" d="M2798.35 3213.48l0 72.81 -7.12 0 0 -27.56c-1.63,2.82 -3.62,4.97 -5.97,6.44 -2.35,1.48 -4.93,2.21 -7.74,2.21 -3.81,0 -7.22,-1.14 -10.23,-3.42 -3.02,-2.28 -5.38,-5.48 -7.09,-9.6 -1.7,-4.12 -2.56,-8.87 -2.56,-14.23 0,-5.36 0.86,-10.09 2.56,-14.18 1.71,-4.09 4.07,-7.28 7.09,-9.56 3.01,-2.28 6.42,-3.41 10.23,-3.41 2.91,0 5.58,0.75 8,2.26 2.42,1.51 4.42,3.74 6,6.69l0 -8.45 6.83 0zm-20.24 45.46c2.46,0 4.71,-0.79 6.74,-2.37 2.03,-1.57 3.61,-3.79 4.75,-6.64 1.13,-2.84 1.7,-6.11 1.7,-9.8 0,-3.69 -0.58,-6.94 -1.74,-9.76 -1.16,-2.81 -2.74,-5.01 -4.75,-6.58 -1.99,-1.58 -4.24,-2.37 -6.7,-2.37 -2.53,0 -4.79,0.77 -6.79,2.32 -2,1.54 -3.58,3.73 -4.74,6.58 -1.16,2.85 -1.74,6.12 -1.74,9.81 0,3.69 0.58,6.96 1.74,9.8 1.16,2.85 2.74,5.07 4.74,6.64 2,1.58 4.26,2.37 6.79,2.37z"/>
  <path id="44" class="fil2" d="M2848.45 3213.48l0 53.3 -6.74 0 0 -8.05c-1.43,2.75 -3.33,4.88 -5.67,6.39 -2.35,1.51 -4.91,2.26 -7.67,2.26 -5.24,0 -9.37,-1.96 -12.39,-5.88 -3.01,-3.92 -4.51,-9.7 -4.51,-17.35l0 -30.67 7.11 0 0 29.57c0,5.16 0.91,9.06 2.74,11.71 1.83,2.65 4.45,3.97 7.86,3.97 3.76,0 6.72,-1.54 8.89,-4.62 2.18,-3.09 3.27,-7.44 3.27,-13.08l0 -27.55 7.11 0z"/>
  <path id="45" class="fil2" d="M2862.02 3213.48l7.12 0 0 53.3 -7.12 0 0 -53.3zm3.56 -10.26c-1.39,0 -2.54,-0.6 -3.45,-1.81 -0.91,-1.21 -1.37,-2.68 -1.37,-4.43 0,-1.74 0.46,-3.23 1.37,-4.47 0.91,-1.24 2.06,-1.86 3.45,-1.86 1.39,0 2.54,0.59 3.45,1.76 0.91,1.17 1.37,2.63 1.37,4.37 0,1.81 -0.46,3.34 -1.37,4.58 -0.91,1.24 -2.06,1.86 -3.45,1.86z"/>
  <path id="46" class="fil2" d="M2889.52 3222.43c1.24,-3.09 3.07,-5.43 5.49,-7.04 2.42,-1.61 5.36,-2.41 8.82,-2.41l0 9.35c-0.39,-0.07 -0.94,-0.1 -1.63,-0.1 -3.86,0 -6.88,1.56 -9.08,4.67 -2.2,3.12 -3.3,7.56 -3.3,13.33l0 26.55 -7.12 0 0 -53.3 6.82 0 0 8.95z"/>
  <path id="47" class="fil2" d="M2949.71 3213.48l0 53.3 -6.75 0 0 -8.05c-1.43,2.75 -3.32,4.88 -5.66,6.39 -2.36,1.51 -4.91,2.26 -7.68,2.26 -5.24,0 -9.36,-1.96 -12.38,-5.88 -3.01,-3.92 -4.52,-9.7 -4.52,-17.35l0 -30.67 7.12 0 0 29.57c0,5.16 0.91,9.06 2.74,11.71 1.83,2.65 4.45,3.97 7.86,3.97 3.75,0 6.72,-1.54 8.89,-4.62 2.17,-3.09 3.27,-7.44 3.27,-13.08l0 -27.55 7.11 0zm-13.93 -20.82l9.04 0 -12.45 13.07 -6.68 0 10.09 -13.07z"/>
  <path id="48" class="fil2" d="M2970.1 3222.43c1.23,-3.09 3.06,-5.43 5.49,-7.04 2.41,-1.61 5.35,-2.41 8.81,-2.41l0 9.35c-0.39,-0.07 -0.93,-0.1 -1.63,-0.1 -3.85,0 -6.87,1.56 -9.08,4.67 -2.19,3.12 -3.29,7.56 -3.29,13.33l0 26.55 -7.12 0 0 -53.3 6.82 0 0 8.95z"/>
  <path id="49" class="fil2" d="M3030.36 3213.48l0 46.06c0,9.32 -1.7,16.21 -5.11,20.67 -3.41,4.45 -8.5,6.68 -15.27,6.68 -3.7,0 -7.24,-0.68 -10.6,-2.06 -3.36,-1.37 -6.07,-3.33 -8.15,-5.88l3.41 -7.44c1.83,2.14 4.08,3.84 6.78,5.08 2.69,1.24 5.47,1.86 8.34,1.86 4.6,0 7.99,-1.48 10.19,-4.43 2.2,-2.95 3.3,-7.44 3.3,-13.48l0 -4.22c-1.68,2.75 -3.74,4.81 -6.19,6.19 -2.45,1.37 -5.1,2.06 -7.97,2.06 -3.76,0 -7.15,-1.09 -10.19,-3.27 -3.04,-2.18 -5.43,-5.23 -7.16,-9.15 -1.72,-3.93 -2.59,-8.4 -2.59,-13.43 0,-5.03 0.87,-9.5 2.59,-13.43 1.73,-3.92 4.12,-6.95 7.16,-9.1 3.04,-2.14 6.43,-3.21 10.19,-3.21 2.97,0 5.72,0.73 8.27,2.21 2.54,1.47 4.63,3.65 6.26,6.53l0 -8.24 6.74 0zm-20.46 42.64c2.58,0 4.88,-0.74 6.94,-2.21 2.05,-1.48 3.66,-3.54 4.81,-6.19 1.17,-2.65 1.75,-5.65 1.75,-9 0,-5.16 -1.26,-9.34 -3.78,-12.52 -2.52,-3.18 -5.76,-4.78 -9.72,-4.78 -4,0 -7.26,1.6 -9.78,4.78 -2.52,3.18 -3.78,7.36 -3.78,12.52 0,3.35 0.58,6.35 1.74,9 1.17,2.65 2.77,4.71 4.82,6.19 2.05,1.47 4.39,2.21 7,2.21z"/>
  <path id="50" class="fil2" d="M3043.93 3213.48l7.12 0 0 53.3 -7.12 0 0 -53.3zm3.56 -10.26c-1.39,0 -2.54,-0.6 -3.45,-1.81 -0.92,-1.21 -1.37,-2.68 -1.37,-4.43 0,-1.74 0.45,-3.23 1.37,-4.47 0.91,-1.24 2.06,-1.86 3.45,-1.86 1.38,0 2.53,0.59 3.45,1.76 0.91,1.17 1.37,2.63 1.37,4.37 0,1.81 -0.46,3.34 -1.37,4.58 -0.92,1.24 -2.07,1.86 -3.45,1.86z"/>
  <path id="51" class="fil2" d="M3081.73 3267.38c-4,0 -7.57,-1.17 -10.71,-3.52 -3.14,-2.34 -5.59,-5.58 -7.38,-9.7 -1.77,-4.12 -2.67,-8.8 -2.67,-14.03 0,-5.23 0.9,-9.91 2.67,-14.03 1.79,-4.12 4.24,-7.34 7.38,-9.66 3.14,-2.31 6.71,-3.46 10.71,-3.46 3.56,0 6.74,0.97 9.53,2.91 2.79,1.95 4.95,4.76 6.49,8.45l-5.41 4.73c-1.24,-2.55 -2.77,-4.46 -4.6,-5.74 -1.83,-1.27 -3.86,-1.91 -6.08,-1.91 -2.57,0 -4.88,0.77 -6.93,2.32 -2.05,1.54 -3.66,3.73 -4.82,6.58 -1.16,2.85 -1.74,6.12 -1.74,9.81 0,3.75 0.58,7.06 1.74,9.91 1.16,2.84 2.77,5.04 4.82,6.58 2.05,1.54 4.36,2.32 6.93,2.32 2.22,0 4.25,-0.64 6.08,-1.92 1.83,-1.27 3.36,-3.18 4.6,-5.73l5.41 4.63c-1.54,3.69 -3.7,6.52 -6.49,8.5 -2.79,1.97 -5.97,2.96 -9.53,2.96z"/>
  <path id="52" class="fil2" d="M3121.24 3212.98c5.44,0 9.61,1.81 12.5,5.43 2.89,3.62 4.33,9.01 4.33,16.19l0 32.18 -6.74 0 0 -7.04c-1.19,2.48 -2.88,4.37 -5.08,5.68 -2.2,1.31 -4.81,1.96 -7.82,1.96 -4.4,0 -7.92,-1.44 -10.56,-4.32 -2.65,-2.88 -3.97,-6.67 -3.97,-11.37 0,-4.69 1.26,-8.46 3.78,-11.31 2.52,-2.85 6.53,-4.27 12.01,-4.27l11.27 0 0 -1.91c0,-4.16 -0.89,-7.35 -2.67,-9.56 -1.78,-2.21 -4.4,-3.32 -7.86,-3.32 -2.33,0 -4.6,0.52 -6.82,1.56 -2.22,1.04 -4.1,2.43 -5.63,4.17l-2.97 -7.24c2.03,-2.21 4.45,-3.9 7.26,-5.07 2.82,-1.18 5.81,-1.76 8.97,-1.76zm-1.62 46.96c2.72,0 5.06,-0.82 7.03,-2.46 1.99,-1.65 3.42,-3.98 4.31,-6.99l0 -7.44 -10.98 0c-6.03,0 -9.04,2.74 -9.04,8.24 0,2.68 0.77,4.8 2.3,6.34 1.53,1.54 3.66,2.31 6.38,2.31z"/>
  <path id="53" class="fil2" d="M3152.53 3191.55c1.38,0 2.53,0.66 3.44,1.96 0.92,1.31 1.38,2.94 1.38,4.88 0,1.01 -0.08,2 -0.23,2.97 -0.14,0.97 -0.47,2.36 -0.96,4.17l-3.55 14.08 -4.68 0 2.75 -14.98c-0.94,-0.47 -1.7,-1.26 -2.27,-2.37 -0.57,-1.1 -0.85,-2.39 -0.85,-3.87 0,-2.01 0.47,-3.65 1.41,-4.93 0.94,-1.27 2.13,-1.91 3.56,-1.91zm14.01 0c1.38,0 2.53,0.66 3.45,1.96 0.91,1.31 1.37,2.94 1.37,4.88 0,1.01 -0.08,2 -0.22,2.97 -0.15,0.97 -0.48,2.36 -0.97,4.17l-3.56 14.08 -4.67 0 2.75 -14.98c-0.94,-0.47 -1.7,-1.26 -2.27,-2.37 -0.56,-1.1 -0.84,-2.39 -0.84,-3.87 0,-2.01 0.46,-3.65 1.4,-4.93 0.94,-1.27 2.13,-1.91 3.56,-1.91z"/>
  <path class="fil0" d="M2019.24 1520.85c-98.1,34.48 -93.28,3.56 -141.51,1.61 -65,-2.62 -67.67,66.91 -13.16,74.2 51.74,6.91 52.39,-39.44 136.38,-33.05 28,2.12 57.27,9.63 63.74,-14.59 6.26,-23.44 -18.66,-37.59 -45.45,-28.17z"/>
  <path class="fil0" d="M2224.92 1895.94c17.36,-16.2 1.38,-44.36 -30.55,-40.92 -17.23,1.86 -32.94,19.31 -54.44,28.28 -47.26,19.74 -123.15,-7.81 -134.1,37.93 -5.74,23.94 14.3,40.88 38.13,44.25 36.47,5.15 45.6,-10.87 57.53,-24.27 41.46,-46.58 106.47,-29.44 123.43,-45.27z"/>
  <path class="fil0" d="M2181.38 1791.27c12.14,-20.4 -11.88,-40.17 -40.35,-33.27 -13.41,3.25 -32.83,27.05 -49.38,35.78 -50.51,26.61 -122.44,1.44 -122.94,53.47 -0.22,22.63 20.11,36.59 46.56,37.44 32.41,1.05 41.7,-13.47 53.03,-31.86 33.5,-54.34 98,-36.2 113.08,-61.56z"/>
  <path class="fil0" d="M2042.59 1437.35c-66.06,-4.29 -60.72,27.71 -147.38,-10.32 -57.27,-25.13 -102.86,30.27 -59.87,59.76 39.4,27.02 72.61,-18.38 140.51,-12.53 27.74,2.39 45.02,18.31 67.55,8.37 26.23,-11.56 16.81,-29.48 -0.81,-45.28z"/>
  <path class="fil0" d="M2257.2 2010.98c6.61,-6.81 15.48,-8.04 15.21,-23.93 -0.19,-10.98 -6.92,-18.65 -18.55,-22.17 -24.37,-7.38 -40.22,9.25 -64.12,15.74 -66.4,18.02 -105.38,-22.86 -141.27,7.38 -40.77,34.36 19.87,84.37 69.65,53.36 18.83,-11.72 21,-21.08 54.51,-28.09 34.91,-7.3 51.84,1.67 84.57,-2.29z"/>
  <path class="fil0" d="M2126.71 1707.36c13.02,-19.84 -12.43,-41.14 -40.96,-33.95 -12.14,3.06 -32.91,27.38 -48.78,36.67 -48.37,28.31 -119.07,2.11 -120.97,53.33 -0.79,21.22 18.86,37.16 44.66,38.51 32.49,1.7 44.14,-14.25 54.11,-31.97 29.18,-51.86 96.3,-38.75 111.94,-62.59z"/>
  <path class="fil0" d="M2092.24 1633.94c11.9,-19.31 -7.52,-38.23 -35.25,-35.07 -14.66,1.67 -32.95,18.2 -59.36,24.99 -40.62,10.46 -50.25,-0.01 -83.34,-1.08 -65.95,-2.13 -66.29,67.08 -12.69,73.74 36.66,4.56 44.96,-12.14 59.02,-23.93 45.97,-38.55 116.07,-13.4 131.62,-38.65z"/>
  <path class="fil0" d="M1853.31 1325.75c-54.62,16.44 -32.92,74.51 22.39,66.49 27.76,-4.03 32.58,-14.47 73.12,-11.32 27.6,2.14 43.44,16.37 61.78,17.17 25.36,1.12 41.56,-16.6 30.81,-34 -11.81,-19.11 -42.63,-8.17 -71.17,-8.47 -63.03,-0.65 -71.18,-43.63 -116.93,-29.87z"/>
  <path class="fil0" d="M2110.15 2221.32c23.54,-3.52 27.6,-14.23 64.95,-11.52 29.54,2.15 42.71,15.09 59.78,16.01 24.17,1.32 38.62,-16.64 27.18,-32.28 -17.05,-23.3 -72.19,8.54 -120.41,-20.1 -14.67,-8.71 -26.6,-21.78 -55.87,-13.91 -17.27,4.65 -32.61,21.4 -24.96,40.82 5.39,13.69 24.81,24.64 49.33,20.98z"/>
  <path class="fil0" d="M2263.85 2114.19c0.53,-7.14 22.43,-32.4 -12.69,-38.58 -16.97,-2.99 -36.62,8.67 -62.41,9.38 -45.72,1.26 -87.91,-38.35 -117.03,-5.52 -24.96,28.14 12.62,69.48 65.17,42.71 59.21,-30.17 84.2,2.25 126.96,-7.99z"/>
  <path class="fil0" d="M2038.6 2291.25c13.52,34.89 69.5,3.93 116.54,25.79 14.89,6.92 25.95,24.3 50.29,18.96 17.54,-3.84 25.61,-24.35 10.8,-34.09 -19.7,-12.95 -62.85,6.15 -103.55,-36.35 -29.85,-31.16 -89.25,-13.49 -74.08,25.69z"/>
  <path class="fil0" d="M2010.07 1278.54c-39.22,-11.17 -64.56,5.26 -97.75,-21.46 -43.27,-34.84 -79.3,-2.61 -72.31,22.37 10.66,38.13 65.5,6.34 104.53,16.16 17.22,4.33 27.44,15.55 42.38,16.42 25.97,1.52 29.13,-17.26 23.15,-33.49z"/>
  <path class="fil0" d="M2021.06 1233.07c26.3,-28.54 -30.77,-20.13 -54.81,-35.89 -13.48,-8.84 -15.74,-20.4 -25.21,-26.25 -33.86,-20.93 -74.75,25.05 -40.1,41.14 13.53,6.28 28.83,0.73 45.75,2.93 33.87,4.39 52.06,42.91 74.37,18.07z"/>
  <path class="fil0" d="M2078.24 2396.91c15.38,7.3 23.67,21.28 32.13,24.61 20.76,8.19 29.32,-6.4 27.08,-21.61 -24.35,-13.76 -46.83,-8.08 -63.53,-31.24 -15.46,-21.44 -20.07,-35.47 -59.92,-19.28 -18.76,50.71 29.3,30.92 64.24,47.52z"/>
  <path class="fil0" d="M2026.01 1181.33l21.46 -9.96c3.83,-32.99 -26.69,-14.75 -48.3,-36.91 -15.34,-15.74 -22.04,-49.82 -57.1,-21.77 -9.4,7.52 -13.2,18.9 -5.47,28.95 7.56,9.84 21.1,8 33.97,8.77 33.59,2.02 31.46,20.94 55.44,30.92z"/>
  <path class="fil0" d="M2263.04 890.46c10.61,12.69 23.17,27.33 23.26,49.45 -13.1,7.88 -9.82,4.23 -18.93,8.25 -14.88,6.57 -9.78,3.46 -18.92,13.32l48.34 -7.29c30.07,-7.53 -5.25,-63.3 -13.46,-79.67 -24.41,-48.65 7.98,-49.78 12.32,-87.75 6.13,-53.54 -29.27,-133.13 -72.55,-178.27 -0.79,-0.84 -1.95,-2.04 -2.76,-2.86l-20.79 -18.6c-41.38,-33.67 -79.21,-39.79 -136.46,-49.21 -48.82,-8.03 -115.71,0.29 -159.72,14.29 -20.07,6.39 -23.25,10.51 -42.29,19.6 -50.87,24.29 -93.02,69.49 -115.72,120.59 -30.64,68.94 -28.41,127.54 -5.71,202.72 7.41,24.53 27.08,54.85 39.55,78.6 61.13,116.45 -21.47,155.71 -69.49,251.3 -15.81,31.46 -25.17,43.22 -39.15,79.01 -57.73,147.9 -24.4,253.52 35.3,390.08 31.11,71.15 89.16,184.41 112,253.71 47.02,142.6 77.05,250.45 26.19,407.42 -9.65,29.79 -19.88,60.99 -31.22,86.94l-42.54 81.23c-51.7,88.38 -94.28,98.78 -98.03,143.91 26.38,-0.59 20.59,-0.27 37.13,-13.5l169.06 -168.53c43.47,-56.94 76.24,-105.73 101.16,-180.16 47.95,-143.19 -0.45,-288.18 -44.18,-418.62l-88.04 -193.28c-22.85,-49.98 -49.55,-95.6 -67.06,-157.99 -24.06,-85.73 -12.47,-212.76 25.06,-282.06 42.7,-78.83 106.66,-145.68 91.62,-233.65 -5.6,-32.71 -21.32,-50.29 -36.73,-76.25 -45.65,-76.93 -75.06,-170.22 -11.96,-254.82 17.21,-23.06 36.98,-34.79 62.52,-50.01 59.91,-35.7 193.74,-37.45 271.06,16.97 46.58,32.79 84.45,88.37 67.2,152.52 -2.69,10.01 -25.89,47.78 13.94,82.61z"/>
  <path class="fil0" d="M2022.04 2460.26c11.63,6.62 17.32,18.05 23.75,21.15 15.8,7.62 23.35,-3.32 22.47,-15.36 -18.27,-12.2 -36.22,-9.04 -47.96,-28.16 -10.87,-17.7 -13.68,-28.96 -45.84,-18.58 -17.64,38.64 21.17,25.93 47.58,40.95z"/>
 </g>
</svg>
